<svg xmlns="http://www.w3.org/2000/svg" width="1200" height="680" viewBox="0 0 1200 680" role="img" aria-label="Pantheon Benchmark Results">
<defs>
<linearGradient id="bg" x1="0" y1="0" x2="1" y2="1">
<stop offset="0%" stop-color="#17151f"/>
<stop offset="55%" stop-color="#222034"/>
<stop offset="100%" stop-color="#30264a"/>
</linearGradient>
<filter id="shadow" x="-20%" y="-20%" width="140%" height="140%">
<feDropShadow dx="0" dy="12" stdDeviation="12" flood-color="#000" flood-opacity="0.25"/>
</filter>
</defs>
<rect width="1200" height="680" rx="34" fill="url(#bg)"/>
<circle cx="1040" cy="100" r="82" fill="#f5c86a" opacity="0.10"/>
<circle cx="132" cy="586" r="96" fill="#0969da" opacity="0.10"/>
<text x="64" y="76" fill="#f8f7ff" font-family="Inter, Arial, sans-serif" font-size="36" font-weight="850">Pantheon Benchmark Results</text>
<text x="64" y="112" fill="#c9c6d8" font-family="Inter, Arial, sans-serif" font-size="16">Naive templates vs Pantheon-generated skills across built-in and public benchmark samples.</text>
<rect x="720" y="50" width="126" height="76" rx="18" fill="#ffffff" opacity="0.08" filter="url(#shadow)"/>
<text x="738" y="79" fill="#c9c6d8" font-family="Inter, Arial, sans-serif" font-size="13">Cases</text>
<text x="738" y="108" fill="#f5c86a" font-family="Inter, Arial, sans-serif" font-size="25" font-weight="850">104</text>
<rect x="862" y="50" width="126" height="76" rx="18" fill="#ffffff" opacity="0.08" filter="url(#shadow)"/>
<text x="880" y="79" fill="#c9c6d8" font-family="Inter, Arial, sans-serif" font-size="13">Pantheon avg</text>
<text x="880" y="108" fill="#f5c86a" font-family="Inter, Arial, sans-serif" font-size="25" font-weight="850">8.01/10</text>
<rect x="1004" y="50" width="126" height="76" rx="18" fill="#ffffff" opacity="0.08" filter="url(#shadow)"/>
<text x="1022" y="79" fill="#c9c6d8" font-family="Inter, Arial, sans-serif" font-size="13">Lift</text>
<text x="1022" y="108" fill="#f5c86a" font-family="Inter, Arial, sans-serif" font-size="25" font-weight="850">6.0x</text>
<line x1="108" y1="500" x2="1092" y2="500" stroke="#ffffff" stroke-opacity="0.22"/>
<line x1="108" y1="500.0" x2="1092" y2="500.0" stroke="#ffffff" stroke-opacity="0.08"/>
<text x="80" y="505.0" text-anchor="end" fill="#aaa6bd" font-family="Inter, Arial, sans-serif" font-size="12">0</text>
<line x1="108" y1="438.0" x2="1092" y2="438.0" stroke="#ffffff" stroke-opacity="0.08"/>
<text x="80" y="443.0" text-anchor="end" fill="#aaa6bd" font-family="Inter, Arial, sans-serif" font-size="12">2</text>
<line x1="108" y1="376.0" x2="1092" y2="376.0" stroke="#ffffff" stroke-opacity="0.08"/>
<text x="80" y="381.0" text-anchor="end" fill="#aaa6bd" font-family="Inter, Arial, sans-serif" font-size="12">4</text>
<line x1="108" y1="314.0" x2="1092" y2="314.0" stroke="#ffffff" stroke-opacity="0.08"/>
<text x="80" y="319.0" text-anchor="end" fill="#aaa6bd" font-family="Inter, Arial, sans-serif" font-size="12">6</text>
<line x1="108" y1="252.0" x2="1092" y2="252.0" stroke="#ffffff" stroke-opacity="0.08"/>
<text x="80" y="257.0" text-anchor="end" fill="#aaa6bd" font-family="Inter, Arial, sans-serif" font-size="12">8</text>
<line x1="108" y1="190.0" x2="1092" y2="190.0" stroke="#ffffff" stroke-opacity="0.08"/>
<text x="80" y="195.0" text-anchor="end" fill="#aaa6bd" font-family="Inter, Arial, sans-serif" font-size="12">10</text>
<rect x="214.0" y="438.0" width="48" height="62.0" rx="10" fill="#7d7894"/>
<rect x="282.0" y="244.2" width="48" height="255.8" rx="10" fill="#f5c86a"/>
<text x="238.0" y="428.0" text-anchor="middle" fill="#d8d5e6" font-family="Inter, Arial, sans-serif" font-size="14" font-weight="700">2.00</text>
<text x="306.0" y="234.2" text-anchor="middle" fill="#f5c86a" font-family="Inter, Arial, sans-serif" font-size="14" font-weight="800">8.25</text>
<text x="272.0" y="536" text-anchor="middle" fill="#f8f7ff" font-family="Inter, Arial, sans-serif" font-size="14">Built-in skill</text>
<text x="272.0" y="554" text-anchor="middle" fill="#f8f7ff" font-family="Inter, Arial, sans-serif" font-size="14">forge</text>
<text x="272.0" y="592" text-anchor="middle" fill="#9a96ad" font-family="Inter, Arial, sans-serif" font-size="12">4 cases</text>
<rect x="542.0" y="469.0" width="48" height="31.0" rx="10" fill="#7d7894"/>
<rect x="610.0" y="252.0" width="48" height="248.0" rx="10" fill="#f5c86a"/>
<text x="566.0" y="459.0" text-anchor="middle" fill="#d8d5e6" font-family="Inter, Arial, sans-serif" font-size="14" font-weight="700">1.00</text>
<text x="634.0" y="242.0" text-anchor="middle" fill="#f5c86a" font-family="Inter, Arial, sans-serif" font-size="14" font-weight="800">8.00</text>
<text x="600.0" y="536" text-anchor="middle" fill="#f8f7ff" font-family="Inter, Arial, sans-serif" font-size="14">Stanford Alpaca</text>
<text x="600.0" y="592" text-anchor="middle" fill="#9a96ad" font-family="Inter, Arial, sans-serif" font-size="12">50 cases</text>
<rect x="870.0" y="449.8" width="48" height="50.2" rx="10" fill="#7d7894"/>
<rect x="938.0" y="252.0" width="48" height="248.0" rx="10" fill="#f5c86a"/>
<text x="894.0" y="439.8" text-anchor="middle" fill="#d8d5e6" font-family="Inter, Arial, sans-serif" font-size="14" font-weight="700">1.62</text>
<text x="962.0" y="242.0" text-anchor="middle" fill="#f5c86a" font-family="Inter, Arial, sans-serif" font-size="14" font-weight="800">8.00</text>
<text x="928.0" y="536" text-anchor="middle" fill="#f8f7ff" font-family="Inter, Arial, sans-serif" font-size="14">awesome-chatgpt-prompts</text>
<text x="928.0" y="592" text-anchor="middle" fill="#9a96ad" font-family="Inter, Arial, sans-serif" font-size="12">50 cases</text>
<rect x="760" y="590" width="16" height="16" rx="4" fill="#7d7894"/>
<text x="784" y="603" fill="#c9c6d8" font-family="Inter, Arial, sans-serif" font-size="14">Naive baseline</text>
<rect x="920" y="590" width="16" height="16" rx="4" fill="#f5c86a"/>
<text x="944" y="603" fill="#c9c6d8" font-family="Inter, Arial, sans-serif" font-size="14">Pantheon</text>
<text x="64" y="620" fill="#9a96ad" font-family="Inter, Arial, sans-serif" font-size="13">Repeatable audit scores, not a universal quality claim.</text>
</svg>