<svg xmlns="http://www.w3.org/2000/svg" width="1200" height="680" viewBox="0 0 1200 680" role="img" aria-label="Pantheon skill evolution lineage">
<defs>
<linearGradient id="evoBg" x1="0" y1="0" x2="1" y2="1">
<stop offset="0%" stop-color="#111018"/>
<stop offset="50%" stop-color="#211f33"/>
<stop offset="100%" stop-color="#34264f"/>
</linearGradient>
<marker id="arrow" markerWidth="10" markerHeight="10" refX="7" refY="3" orient="auto" markerUnits="strokeWidth"><path d="M0,0 L0,6 L8,3 z" fill="#f5c86a"/></marker>
</defs>
<rect width="1200" height="680" rx="34" fill="url(#evoBg)"/>
<text x="64" y="72" fill="#f8f7ff" font-family="Inter, Arial, sans-serif" font-size="36" font-weight="850">Skill Evolution Arena</text>
<text x="64" y="108" fill="#c9c6d8" font-family="Inter, Arial, sans-serif" font-size="16">Fork variants, score them, select winners, merge traits, preserve lineage.</text>
<text x="82" y="164" fill="#f5c86a" font-family="Inter, Arial, sans-serif" font-size="18" font-weight="800">Generation 0</text>
<text x="392" y="164" fill="#f5c86a" font-family="Inter, Arial, sans-serif" font-size="18" font-weight="800">Generation 1: Mutations</text>
<text x="960" y="164" fill="#f5c86a" font-family="Inter, Arial, sans-serif" font-size="18" font-weight="800">Generation 2</text>
<line x1="72" y1="510" x2="1128" y2="510" stroke="#ffffff" stroke-opacity="0.18"/>
<rect x="82" y="196" width="180" height="350" rx="26" fill="#ffffff" opacity="0.08"/>
<text x="172" y="238" text-anchor="middle" fill="#f8f7ff" font-family="Inter, Arial, sans-serif" font-size="18" font-weight="800">Seed Skill</text>
<rect x="144" y="278.0" width="56" height="232.0" rx="12" fill="#7d7894"/>
<text x="172" y="266.0" text-anchor="middle" fill="#d8d5e6" font-family="Inter, Arial, sans-serif" font-size="18" font-weight="800">8/10</text>
<text x="172" y="574" text-anchor="middle" fill="#aaa6bd" font-family="Inter, Arial, sans-serif" font-size="13">initial draft</text>
<rect x="342" y="196" width="86" height="350" rx="20" fill="#ffffff" opacity="0.07"/>
<rect x="364" y="249.0" width="42" height="261.0" rx="10" fill="#f5c86a"/>
<text x="385" y="239.0" text-anchor="middle" fill="#f5c86a" font-family="Inter, Arial, sans-serif" font-size="15" font-weight="800">9</text>
<text x="385" y="574" text-anchor="middle" fill="#f8f7ff" font-family="Inter, Arial, sans-serif" font-size="13">Smith</text>
<rect x="454" y="196" width="86" height="350" rx="20" fill="#ffffff" opacity="0.07"/>
<rect x="476" y="249.0" width="42" height="261.0" rx="10" fill="#0969da"/>
<text x="497" y="239.0" text-anchor="middle" fill="#0969da" font-family="Inter, Arial, sans-serif" font-size="15" font-weight="800">9</text>
<text x="497" y="574" text-anchor="middle" fill="#f8f7ff" font-family="Inter, Arial, sans-serif" font-size="13">Oracle</text>
<rect x="566" y="196" width="86" height="350" rx="20" fill="#ffffff" opacity="0.07"/>
<rect x="588" y="249.0" width="42" height="261.0" rx="10" fill="#0969da"/>
<text x="609" y="239.0" text-anchor="middle" fill="#0969da" font-family="Inter, Arial, sans-serif" font-size="15" font-weight="800">9</text>
<text x="609" y="574" text-anchor="middle" fill="#f8f7ff" font-family="Inter, Arial, sans-serif" font-size="13">Judge</text>
<rect x="678" y="196" width="86" height="350" rx="20" fill="#ffffff" opacity="0.07"/>
<rect x="700" y="249.0" width="42" height="261.0" rx="10" fill="#0969da"/>
<text x="721" y="239.0" text-anchor="middle" fill="#0969da" font-family="Inter, Arial, sans-serif" font-size="15" font-weight="800">9</text>
<text x="721" y="574" text-anchor="middle" fill="#f8f7ff" font-family="Inter, Arial, sans-serif" font-size="13">Arena</text>
<rect x="790" y="196" width="86" height="350" rx="20" fill="#ffffff" opacity="0.07"/>
<rect x="812" y="249.0" width="42" height="261.0" rx="10" fill="#0969da"/>
<text x="833" y="239.0" text-anchor="middle" fill="#0969da" font-family="Inter, Arial, sans-serif" font-size="15" font-weight="800">9</text>
<text x="833" y="574" text-anchor="middle" fill="#f8f7ff" font-family="Inter, Arial, sans-serif" font-size="13">Archivist</text>
<rect x="954" y="196" width="184" height="350" rx="28" fill="#f5c86a" opacity="0.14" stroke="#f5c86a" stroke-opacity="0.58"/>
<text x="1046" y="238" text-anchor="middle" fill="#f8f7ff" font-family="Inter, Arial, sans-serif" font-size="18" font-weight="850">Ascended</text>
<rect x="1018" y="249.0" width="56" height="261.0" rx="12" fill="#f5c86a"/>
<text x="1046" y="237.0" text-anchor="middle" fill="#f5c86a" font-family="Inter, Arial, sans-serif" font-size="18" font-weight="850">9/10</text>
<text x="1046" y="574" text-anchor="middle" fill="#f8f7ff" font-family="Inter, Arial, sans-serif" font-size="13">merged survivor</text>
<line x1="276" y1="350" x2="320" y2="350" stroke="#f5c86a" stroke-width="4" marker-end="url(#arrow)" opacity="0.9"/>
<line x1="906" y1="350" x2="942" y2="350" stroke="#f5c86a" stroke-width="4" marker-end="url(#arrow)" opacity="0.9"/>
<text x="64" y="626" fill="#c9c6d8" font-family="Inter, Arial, sans-serif" font-size="15">Selection rule: top audited variants are merged into the ascended skill.</text>
<text x="64" y="652" fill="#9a96ad" font-family="Inter, Arial, sans-serif" font-size="13">Bounded evolution means fork, score, select, merge, and record lineage before replacing anything durable.</text>
</svg>